<svg id="Layer_1" data-name="Layer 1" xmlns="http://www.w3.org/2000/svg" xmlns:xlink="http://www.w3.org/1999/xlink" viewBox="0 0 1255.39 858.72"><defs><style>.cls-1{fill:#84481f;}.cls-2{fill:#e97b24;}.cls-3{fill:#6f3b14;}.cls-4{fill:#d76a29;}.cls-5{fill:#f1b61b;}.cls-6{fill:#ed9821;}.cls-7{fill:#f27121;}.cls-8{fill:#f89f1b;}.cls-9{fill:#ffc50a;}.cls-10{fill:url(#linear-gradient);}.cls-11{fill:url(#linear-gradient-2);}.cls-12{fill:url(#linear-gradient-3);}.cls-13{fill:url(#linear-gradient-4);}.cls-14{fill:url(#linear-gradient-5);}.cls-15{fill:url(#linear-gradient-6);}.cls-16{fill:url(#linear-gradient-7);}.cls-17{fill:url(#linear-gradient-8);}.cls-18{fill:#fc0;}.cls-19{fill:url(#linear-gradient-9);}.cls-20{fill:url(#linear-gradient-10);}.cls-21{fill:#fff;}.cls-22{fill:#ff5f54;}.cls-23{fill:#00a2a6;}.cls-24{fill:#ffc7cf;}.cls-25{fill:#8bd8db;}.cls-26{fill:#ffd7d0;}.cls-27,.cls-29,.cls-31{fill:none;stroke-miterlimit:10;}.cls-27{stroke:#ffffd1;stroke-width:6px;}.cls-28{fill:#0082a6;}.cls-29,.cls-31{stroke:#fff8f6;}.cls-29{stroke-width:0.67px;}.cls-30{fill:#298f87;}.cls-31{stroke-width:0.65px;}.cls-32{fill:#f27050;}.cls-33{fill:#afc770;}.cls-34{fill:#f4eeed;}.cls-35{fill:#ffffd1;}.cls-36{fill:#1f6b65;}.cls-37{fill:#dbdbdb;}.cls-38{fill:#eee;}.cls-39{fill:#6b79bb;}.cls-40{fill:#533429;}.cls-41{fill:#0b223b;}.cls-42{fill:#f4b489;}.cls-43{fill:#231b30;}.cls-44{fill:#f7bc94;}.cls-45{fill:#f4b78e;}.cls-46{fill:#f99e2a;}.cls-47{fill:#1f4954;}.cls-48{fill:#ffbb40;}</style><linearGradient id="linear-gradient" x1="-2999.51" y1="-1262.12" x2="-2922.87" y2="-1262.12" gradientTransform="matrix(-0.28, -0.6, 0.66, -0.3, 712.21, -1757.19)" gradientUnits="userSpaceOnUse"><stop offset="0" stop-color="#e88f00"/><stop offset="1" stop-color="#cc7d00"/></linearGradient><linearGradient id="linear-gradient-2" x1="-2950.81" y1="-1304.52" x2="-2950.81" y2="-1249" gradientTransform="matrix(0.66, 0, 0, 0.73, 2639.46, 1344.86)" gradientUnits="userSpaceOnUse"><stop offset="0" stop-color="#fc0"/><stop offset="1" stop-color="#e88f00"/></linearGradient><linearGradient id="linear-gradient-3" x1="-2952.58" y1="-1268.01" x2="-2952.58" y2="-1243.36" gradientTransform="matrix(-0.28, -0.6, 0.66, -0.3, 712.21, -1757.19)" xlink:href="#linear-gradient-2"/><linearGradient id="linear-gradient-4" x1="-2950.8" y1="-1256.36" x2="-2950.8" y2="-1228.59" gradientTransform="matrix(-0.28, -0.6, 0.66, -0.3, 712.21, -1757.19)" xlink:href="#linear-gradient-2"/><linearGradient id="linear-gradient-5" x1="-3040.86" y1="-1309.58" x2="-3040.86" y2="-1283.61" gradientTransform="matrix(-0.28, -0.6, 0.66, -0.3, 712.21, -1757.19)" xlink:href="#linear-gradient-2"/><linearGradient id="linear-gradient-6" x1="-3253.5" y1="-1298.99" x2="-3135.1" y2="-1298.99" gradientTransform="matrix(0.66, 0, 0, 0.73, 2833.74, 1504.03)" xlink:href="#linear-gradient-2"/><linearGradient id="linear-gradient-7" x1="-3223.99" y1="-1298.99" x2="-3105.59" y2="-1298.99" gradientTransform="matrix(0.66, 0, 0, 0.73, 2841.37, 1508.92)" xlink:href="#linear-gradient-2"/><linearGradient id="linear-gradient-8" x1="-3263.72" y1="-1298.99" x2="-3130.47" y2="-1298.99" gradientTransform="matrix(0, -0.66, 0.73, 0, 1698.1, -1557.72)" xlink:href="#linear-gradient-2"/><linearGradient id="linear-gradient-9" x1="-3376.8" y1="-1298.99" x2="-3118.72" y2="-1298.99" gradientTransform="matrix(0, -0.66, 0.73, 0, 1700.39, -1558.23)" xlink:href="#linear-gradient-2"/><linearGradient id="linear-gradient-10" x1="-3421.34" y1="-1298.99" x2="-3287.23" y2="-1298.99" gradientTransform="matrix(-0.28, -0.6, 0.66, -0.3, 712.21, -1757.19)" xlink:href="#linear-gradient-2"/></defs><path class="cls-1" d="M825,442.78c.46-1.87-15.38-21.91-18.65-22.38s-368.23-1.86-370.56-.46-15.38,22.84-15.38,22.84C421.75,440.91,823.55,440.91,825,442.78Z"/><path class="cls-2" d="M808.17,566.3S826.35,444.64,825,442.78s-403.2-1.87-404.59,0,20,124,20,124C441.8,565.83,806.3,566.3,808.17,566.3ZM455.09,554.82s-19.71-98.69-18.42-100.19,370.68-1.51,372,0-15.43,99.82-15.43,99.82S462.38,556.71,455.09,554.82Z"/><path class="cls-3" d="M808.64,454.63c-1.29-1.51-370.69-1.51-372,0s18.42,100.19,18.42,100.19c7.29,1.89,338.12-.37,338.12-.37S809.92,456.13,808.64,454.63Z"/><path class="cls-4" d="M448.21,572.56c1.33-.91,350-.45,351.81-.45,1.47,0,14.13,30.64,18.55,41.44l10.57-.64s-19.11-46.61-21-46.61-366.37-.47-367.77.46-28.9,45.68-28.9,45.68l11.29.71C429.16,602.68,447.11,573.3,448.21,572.56Z"/><path class="cls-5" d="M668.83,505c6.67-6.28,14.32-12.19,23.35-13.72,14.78-2.5,28.61,7.1,40.53,16.2l42.11,32.14c3.11,2.37,6.28,4.8,8.53,8,2.91,4.14,4.06,9.21,6,13.88a43.75,43.75,0,0,0,22.5,23,136.55,136.55,0,0,1,12.4,47.68c-19.68,2.1-39.36,4.2-59.1,5.71-115,8.79-230.58-2.6-344.89-18A328.7,328.7,0,0,1,468,544.26a16.12,16.12,0,0,1,5-4.46c6.24-3,13,2.43,19.54,4.69,9.51,3.28,20.21-.49,28.21-6.59s14.08-14.32,21-21.6c1.33-1.38,2.9-2.83,4.82-2.83a7.42,7.42,0,0,1,3.73,1.46l43.18,26.81c7.9,4.91,16.52,10,25.79,9.24,14.22-1.16,23.32-15,31.92-26.34A158.94,158.94,0,0,1,668.83,505Z"/><path class="cls-6" d="M789.35,559.89c-1-2.38-1.78-4.87-2.7-7.29-.07,1-.11,2-.18,3a43.32,43.32,0,0,1-10.15,24.89L734.69,566.7c-3.57-1.19-7.22-2.42-10.13-4.8-4-3.27-6.08-8.25-8.84-12.62A43.29,43.29,0,0,0,694.41,532a13.16,13.16,0,0,0-7.11-1c-2.48.51-4.55,2.2-6.37,4-9,8.81-14.4,20.62-21.13,31.29s-15.95,21-28.3,23.59c-27.29,5.71-49-28-76.86-28-9.13,3.7-8.63,19.66-18.18,22.1-2.46.63-5.05.12-7.53-.44a195.63,195.63,0,0,1-34.28-11.18c-4.7,10.95-13.4,24-24.95,21.1-5.16-1.31-8.9-5.64-12.25-9.76l-10.83-.8-.72-10.78a328.22,328.22,0,0,0-25.64,46.18c114.31,15.4,229.89,26.8,344.89,18,19.74-1.51,39.42-3.61,59.1-5.71a136.61,136.61,0,0,0-12.4-47.68A43.75,43.75,0,0,1,789.35,559.89Z"/><path class="cls-7" d="M484.57,537.26c13.69,5.87,16,12.72,12.71,22.5-3.58,10.76-18.58,20.87-30.32,11.41S484.57,537.26,484.57,537.26Z"/><path class="cls-8" d="M484.57,537.26c-14.92-6.42-34.24,24.13-17.61,33.91S508,547.37,484.57,537.26Z"/><path class="cls-9" d="M482.35,542.65c-10.3-4.44-23.64,16.66-12.16,23.41S498.56,549.63,482.35,542.65Z"/><path class="cls-7" d="M659,568.72c10,11,9.21,18.22,2.16,25.75-7.75,8.28-25.6,11.2-32.32-2.3S659,568.72,659,568.72Z"/><path class="cls-8" d="M659,568.72c-10.87-12.07-41.18,7.62-30.16,23.45S676.07,587.71,659,568.72Z"/><path class="cls-9" d="M654.7,572.69c-7.51-8.34-28.44,5.26-20.83,16.19S666.51,585.8,654.7,572.69Z"/><path class="cls-7" d="M636.36,568.45c9.13,10.09,8.41,16.64,2,23.52-7.08,7.56-23.38,10.22-29.51-2.1S636.36,568.45,636.36,568.45Z"/><path class="cls-8" d="M636.36,568.45c-9.93-11-37.61,7-27.54,21.42S652,585.79,636.36,568.45Z"/><path class="cls-9" d="M632.47,572.07c-6.85-7.61-26,4.81-19,14.79S643.26,584.05,632.47,572.07Z"/><path class="cls-7" d="M577.39,534.87c-5.4,16.26-13,19.54-24.54,16.75-12.68-3.07-25.71-19.27-16-33.63S577.39,534.87,577.39,534.87Z"/><path class="cls-8" d="M577.39,534.87c5.91-17.72-31-36.88-40.56-16.88S568.09,562.75,577.39,534.87Z"/><path class="cls-9" d="M571,532.85c4.09-12.23-21.37-25.46-28-11.65S564.58,552.1,571,532.85Z"/><path class="cls-10" d="M683.4,393.73l-18.71,8.57L680,435.69l18.71-8.58,0-.05c.55,1.21,2.86,1.34,5.16.29h0c2.29-1.05,3.7-2.88,3.15-4.09l0,0,7.9-3.62a1.54,1.54,0,0,0,.85-2l-3.38-7.36a3.83,3.83,0,1,1-3.18-6.94l-3.42-7.47a4,4,0,0,1-5.41-1.72,3.91,3.91,0,0,1,1.43-4.75,1.12,1.12,0,0,0,.39-1.36l-1.13-2.46-9.35,4.29c.55,1.21-.86,3-3.15,4.09h0C686.26,395.06,684,394.93,683.4,393.73Z"/><rect class="cls-11" x="662.18" y="401.9" width="36.73" height="20.58" transform="translate(589.38 1202.59) rotate(-114.62)"/><path class="cls-12" d="M687.4,391.49h0c-2.29,1.05-4.6.93-5.15-.28l15.28,33.34c.55,1.21,2.86,1.33,5.15.28h0c2.3-1.05,3.71-2.88,3.15-4.09L690.55,387.4C691.11,388.61,689.7,390.44,687.4,391.49Z"/><path class="cls-13" d="M705.86,420.79l8.1-3.72a1.31,1.31,0,0,0,.73-1.71l-2.3-5a1.6,1.6,0,0,0-1.74-.81,3.86,3.86,0,0,1-4.2-2.08,4,4,0,0,1,2.22-5.21l-3.36-7.34a4,4,0,0,1-5.41-1.72,3.92,3.92,0,0,1,1.37-4.7,1.22,1.22,0,0,0,.42-1.47l-1.11-2.44a1.69,1.69,0,0,0-2.27-.72l-7.76,3.55Z"/><path class="cls-14" d="M663.5,396l70.86,154.6-15.49,7.1L648,403.06c-1.56-3.41.21-7.57,4-9.29l1.9-.87C657.63,391.18,661.94,392.55,663.5,396Z"/><path class="cls-15" d="M710.46,540.65h25a7.3,7.3,0,0,1,7.3,7.3v12.33a7.3,7.3,0,0,1-7.3,7.3h-25a0,0,0,0,1,0,0V540.65A0,0,0,0,1,710.46,540.65Z" transform="translate(525.63 1445.53) rotate(-114.62)"/><path class="cls-16" d="M712.71,551.48h27.43a4.87,4.87,0,0,1,4.87,4.87v5.32a4.87,4.87,0,0,1-4.87,4.87H712.71a0,0,0,0,1,0,0V551.48A0,0,0,0,1,712.71,551.48Z" transform="translate(524.36 1454.5) rotate(-114.62)"/><ellipse class="cls-17" cx="748.19" cy="601.18" rx="50.16" ry="45.55" transform="translate(-182.45 366.4) rotate(-24.62)"/><ellipse class="cls-18" cx="750.48" cy="606.19" rx="50.16" ry="45.55" transform="translate(-184.33 367.82) rotate(-24.62)"/><ellipse class="cls-19" cx="750.48" cy="606.19" rx="38.72" ry="35.16" transform="translate(-184.33 367.81) rotate(-24.62)"/><path class="cls-20" d="M764,635.64c-19,8.7-40.69,2.15-49.24-14.59.18.43.35.85.54,1.27,8.09,17.65,30.41,24.74,49.85,15.83s28.64-30.44,20.55-48.09c-.19-.42-.4-.83-.61-1.24C792.17,606.22,783,626.94,764,635.64Z"/><path class="cls-21" d="M751.93,609.34c4.93-2.26,10.59-.46,12.65,4s-.29,9.94-5.22,12.2-10.59.46-12.65-4S747,611.61,751.93,609.34Z"/><polygon class="cls-22" points="455.78 386.97 485.81 392.91 457.14 437.38 455.78 386.97"/><polygon class="cls-23" points="88.76 326.41 72.96 310.7 98.35 299.31 88.76 326.41"/><polygon class="cls-24" points="801.41 385.09 827.39 352.66 853.57 397.48 801.41 385.09"/><polygon class="cls-23" points="250.26 363.47 258.7 385.3 229.47 385.37 250.26 363.47"/><polygon class="cls-25" points="746.76 284.37 730.72 282.06 740.59 264.39 746.76 284.37"/><polygon class="cls-23" points="643.48 312.86 671.88 324.3 650.33 346.95 643.48 312.86"/><polygon class="cls-26" points="397.7 261.61 419.17 285.58 381.61 299.88 397.7 261.61"/><path class="cls-27" d="M160.55,755.6c120.85,47,843.27,3.9,925.55,0s119.33-69.78,90.56-126.55-122.78-33.36-122.78-33.36,77.4-101.42-8.61-222.33-309.14-59.91-371.84-20.2S617,112,353.52,170.54s-190,331.54-190,331.54S-109.39,650.5,160.55,755.6Z"/><path class="cls-28" d="M177.15,557.88c4,4.82.36,12.79-5.37,15.36s-12.35,1.45-18.53.29-12.84-2.21-18.51.48c-9.34,4.44-12.1,17.07-21,22.43s-20,1.69-29.66-1.67-21.48-6-29.33.59c-2.87,2.41-4.81,5.82-7.8,8.07s-7.91,2.85-10-.23-.12-7.09,1.85-10.19l17.3-27.3c6.44-10.15,14.15-21.21,26-23.5,10.29-2,21.18,3.37,31.25.43,13.23-3.86,19.92-20.52,33.39-23.41,10.15-2.17,20.47,4.83,25.52,13.89s6,19.76,6.9,30.1"/><path class="cls-29" d="M38.54,603.4c7.05-14.64,27.23-27.75,43-31.65,9.88-2.44,20.55-2.2,29.69-6.69,7.91-3.89,13.79-10.92,21.08-15.89,11.82-8,29.92-8.34,43.48-3.79"/><path class="cls-29" d="M114.26,563.15s-23.89-21.76-38.8-18.45"/><path class="cls-29" d="M62.05,580.24s3.23,7.16-7.25,15.12"/><path class="cls-29" d="M146.9,543.74s-7.27-13.26-19.29-10"/><path class="cls-29" d="M160.94,542.55s1.3,17.78-13.14,29.9"/><path class="cls-29" d="M66.87,550.6s14.1-.35,34.85,18.06"/><path class="cls-29" d="M111.23,565.06s-.75,23.22-13.83,33"/><path class="cls-29" d="M70.69,591.4s13.65-10.7,13.38-19.75"/><path class="cls-29" d="M42,587.87s1.67-3.31,9.74-1.22"/><path class="cls-29" d="M53,570.85s6.19-.83,14.22,5.86"/><path class="cls-29" d="M134.74,574s19.7-16.17,7.62-29.47"/><path class="cls-29" d="M113.31,542.64s10,1.12,11.82,10.82"/><path class="cls-29" d="M144,520.29s16.57,8.37,21.25,21.69"/><path class="cls-30" d="M179.41,544.29c1,5.5-5.28,10.11-10.86,9.62s-10.25-4.26-14.55-7.85-9-7.31-14.61-7.68c-9.21-.62-16.85,8-26.07,8.32S97,539.32,91,532.49s-14.1-14-23.08-12.32c-3.29.63-6.27,2.44-9.58,2.89s-7.4-1.23-7.72-4.56,3-5.56,5.87-7.12l25.36-13.7c9.43-5.1,20.25-10.35,30.43-7,8.88,2.93,15,11.86,24.12,13.95,12,2.76,24.44-7.29,36.18-3.67,8.84,2.73,13.83,12.67,13.81,21.92s-3.91,18-7.74,26.43"/><path class="cls-31" d="M51.73,519.35C63.59,511,85,509.61,99,513.45c8.76,2.41,17,7.24,26,7.72,7.85.42,15.49-2.49,23.32-3.18,12.71-1.12,26.92,6.54,35.49,16"/><path class="cls-31" d="M128.18,521s-9.11-27.34-22.15-31.26"/><path class="cls-31" d="M80.11,511.56s-.6,7-12.22,8.61"/><path class="cls-31" d="M162,520.12s.12-13.48-10.65-16.18"/><path class="cls-31" d="M173.48,525.31s-6.74,14.4-23.25,17.54"/><path class="cls-31" d="M96.77,490.6s11.13,5.87,19.26,29.23"/><path class="cls-31" d="M125,521.17s-10.7,17.74-25.14,19.68"/><path class="cls-31" d="M82,524s15.28-2.38,19-9.54"/><path class="cls-31" d="M61.16,508.75s2.74-1.85,8.11,3.3"/><path class="cls-31" d="M77.14,500.31s5.19,2.05,8.51,10.75"/><path class="cls-31" d="M139.39,538.38s22.37-4,18.76-19.62"/><path class="cls-31" d="M136.37,504.63s7.27,5.22,4.49,13.57"/><path class="cls-31" d="M170,500.62s9.25,13.73,7.09,26.13"/><path class="cls-32" d="M185.36,507.13c-11.34-2.77-10.16-13.53-11.25-17.62-.93-3.5-2.83-6.56-6.23-8.1-5.4-2.45-11.43.66-15.84-4.24a11.77,11.77,0,0,1-1.23-1.67c-2.82-4.62-1.77-11-5.89-14.83-4.83-4.48-11.22-5.28-17.61-4.27C120.13,457.54,116,449,110,445.28a30.16,30.16,0,0,0-13.79-5.13c-3.46-.51-11.89.18-14,3.09-5.51,7.58-3.44,11.34,3.14,16.13,2.44,1.78,5.76,1.85,8.58,2.95A28.23,28.23,0,0,1,108.83,476c1.33,2.7,2.21,5.6,3.62,8.25,5,9.49,15.87,14.13,26.23,16.95s7.49,6.93,14.53,10.05c6.66,2.94,13,3.2,30.46,0"/><path class="cls-33" d="M187.11,520l0,0a.32.32,0,0,0,.16-.43c-.06-.13-6-13.32-15.48-29.49-8.72-14.93-22.28-35.54-37.34-48.92a.33.33,0,1,0-.43.49c15,13.31,28.5,33.86,37.21,48.75,9.43,16.15,15.39,29.31,15.45,29.44A.32.32,0,0,0,187.11,520Z"/><path class="cls-33" d="M134.26,435.3c.23,2.13,5.12,11.24,5.12,11.24s2.82-10,2.59-12.08a3.88,3.88,0,0,0-7.71.84Z"/><path class="cls-33" d="M131.58,455c2.14-.11,11.5-4.48,11.5-4.48s-9.77-3.37-11.91-3.26a3.88,3.88,0,1,0,.41,7.74Z"/><path class="cls-33" d="M145.88,440.8c-.71,2-.22,12.35-.22,12.35s6.83-7.76,7.53-9.78a3.87,3.87,0,0,0-7.31-2.57Z"/><path class="cls-33" d="M139.6,464.85c2.13-.26,11.17-5.27,11.17-5.27s-10-2.69-12.11-2.43a3.88,3.88,0,1,0,.94,7.7Z"/><path class="cls-33" d="M146.82,473.55c2.14.15,12-3.08,12-3.08s-9.3-4.51-11.44-4.65a3.87,3.87,0,0,0-.52,7.73Z"/><path class="cls-33" d="M154.47,486.51c2-.69,9.86-7.43,9.86-7.43s-10.32-.6-12.34.08a3.88,3.88,0,1,0,2.48,7.35Z"/><path class="cls-33" d="M155.6,451.53c-.93,1.93-1.59,12.25-1.59,12.25s7.65-7,8.58-8.89a3.88,3.88,0,0,0-7-3.36Z"/><path class="cls-33" d="M159.77,462.74c-.26,2.12,2.4,12.11,2.4,12.11s5-9,5.3-11.15a3.88,3.88,0,0,0-7.7-1Z"/><path class="cls-33" d="M171.06,473.15c-1.06,1.86-2.45,12.1-2.45,12.1s8.12-6.39,9.19-8.25a3.88,3.88,0,0,0-6.74-3.85Z"/><path class="cls-33" d="M124,438c1.65,1.37,11.49,4.53,11.49,4.53s-4.88-9.12-6.52-10.49a3.88,3.88,0,0,0-5,6Z"/><path class="cls-34" d="M98,454.46a58.28,58.28,0,0,1,16.13,9.71c4.9,4,9.36,8.57,13.83,13.06a165.76,165.76,0,0,0,13.94,13,85.73,85.73,0,0,0,18.37,10.95,174,174,0,0,0,20.91,7.6c.88.27,1.76.52,2.65.76a.2.2,0,0,0,.11-.39c-7-2.62-14.19-4.88-21.1-7.81a88.19,88.19,0,0,1-19-10.69,146.7,146.7,0,0,1-14.19-12.78c-4.51-4.46-9-9-13.87-13.07A60.93,60.93,0,0,0,100.26,455c-.72-.3-1.45-.58-2.18-.83-.17-.06-.24.21-.08.27Z"/><path class="cls-34" d="M114,485a72.05,72.05,0,0,0,11.08.75c1.61,0,3.21-.17,4.81-.32a44.19,44.19,0,0,0,6.18-.75.17.17,0,0,0-.05-.33,52.11,52.11,0,0,0-6.22.49c-1.59.14-3.19.26-4.79.31a88.06,88.06,0,0,1-11-.54c-.26,0-.25.36,0,.39Z"/><path class="cls-34" d="M155.74,480.3c1.79,6.32,3.4,12.91,7.11,18.42a23.84,23.84,0,0,0,3.66,4.41c.21.19.47-.09.3-.31-1.05-1.35-2.19-2.64-3.18-4.06a35.6,35.6,0,0,1-2.32-3.84,57.06,57.06,0,0,1-3.44-8.74c-.64-2-1.25-4-1.88-5.95a.13.13,0,0,0-.25.07Z"/><path class="cls-34" d="M153.07,484.47c.75,2.09,1.3,4.24,2.07,6.32a24.76,24.76,0,0,0,2.67,5.13c.93,1.42,1.93,2.81,3,4.14.36.46.73.93,1.13,1.36.14.16.42.37.5.47s.41-.08.26-.27c.1.12,0-.09-.07-.14s-.16-.27-.25-.4c-.32-.44-.65-.86-1-1.3-1-1.35-2-2.69-3-4.09a26.29,26.29,0,0,1-2.76-5.15c-.79-2-1.37-4.14-2.15-6.18-.1-.25-.5-.15-.41.11Z"/><path class="cls-34" d="M109.36,448.09a42.48,42.48,0,0,0,3.71,10c.79,1.62,1.62,3.21,2.47,4.79s1.67,3.26,2.68,4.76c.14.21.53.08.43-.17a46.76,46.76,0,0,0-2.39-4.61c-.85-1.58-1.7-3.16-2.51-4.77s-1.59-3.24-2.28-4.91-1.28-3.39-1.86-5.11a.13.13,0,0,0-.25.07Z"/><path class="cls-34" d="M91.33,461a4,4,0,0,0,1.86.08c.7-.05,1.4-.09,2.09-.15l4.19-.35c2.72-.23,5.49-.37,8.17-.87.2,0,.14-.34,0-.34-2.79,0-5.61.33-8.38.58l-4.06.37-2.09.22a3.65,3.65,0,0,0-1.74.39,0,0,0,0,0,0,.07Z"/><path class="cls-34" d="M131.18,458.34a42.4,42.4,0,0,1,2.46,4.79,55.88,55.88,0,0,1,2,5.63A79.93,79.93,0,0,1,138.1,481c.26,2,.43,4.06.59,6.1a.2.2,0,0,0,.4,0,48.17,48.17,0,0,0-1.16-11.54,59,59,0,0,0-3.6-12.07,23.89,23.89,0,0,0-2.91-5.35c-.11-.13-.32,0-.24.19Z"/><path class="cls-34" d="M115.63,488.77a31.88,31.88,0,0,0,10.36.33c1.69-.19,3.38-.48,5.06-.81A34.74,34.74,0,0,0,136.3,487c.15-.05.14-.31,0-.29-1.65.17-3.28.59-4.9.92s-3.49.67-5.26.9a34,34,0,0,1-10.37-.12c-.24,0-.35.33-.1.38Z"/><path class="cls-34" d="M144.42,502.94a38.44,38.44,0,0,0,8.9.62c1.48-.05,3-.18,4.43-.37a17.87,17.87,0,0,0,4.43-.89c.17-.07.17-.36,0-.35-1.47.05-2.93.44-4.39.63s-2.95.3-4.43.37a75.23,75.23,0,0,1-8.88-.21.1.1,0,0,0,0,.2Z"/><path class="cls-35" d="M187.47,764c111.42,43.38,777.47,3.59,853.33,0s110-64.34,83.49-116.68-113.2-30.76-113.2-30.76,71.36-93.5-7.93-205-285-55.23-342.83-18.63-52-222.31-295-168.37S190.16,530.23,190.16,530.23-61.42,667.08,187.47,764Z"/><rect class="cls-36" x="423.76" y="258.08" width="367.96" height="523.3"/><rect class="cls-37" x="438.29" y="274.66" width="338.89" height="506.71"/><polygon class="cls-38" points="542.03 762.74 542.03 293.73 510.85 275.23 706.68 275.23 673.45 293.73 673.45 762.74 542.03 762.74"/><polygon class="cls-36" points="777.77 781.83 676.21 763.25 676.21 293.22 777.77 274.65 777.77 781.83"/><polygon class="cls-30" points="774.55 781.24 673.45 762.75 673.45 293.73 774.55 275.24 774.55 781.24"/><path class="cls-36" d="M705.79,564.3h-6.12a16.63,16.63,0,0,1-15.94-12.06l-15.05-53.38a9.1,9.1,0,0,1,8.76-11.56h5.07s2.34,3.82,0,7.43h-5.07a1.66,1.66,0,0,0-1.6,2.11l15,53.38a9.14,9.14,0,0,0,8.78,6.65h6.12S707.81,561.52,705.79,564.3Z"/><polygon class="cls-36" points="437.72 781.83 539.27 763.25 539.27 293.22 437.72 274.65 437.72 781.83"/><polygon class="cls-30" points="440.93 781.24 542.04 762.75 542.04 293.73 440.93 275.24 440.93 781.24"/><path class="cls-36" d="M509.69,564.3h6.12a16.63,16.63,0,0,0,15.94-12.06l15-53.38a9.09,9.09,0,0,0-8.75-11.56H533s-2.34,3.82,0,7.43h5.08a1.63,1.63,0,0,1,1.32.66,1.6,1.6,0,0,1,.27,1.45l-15,53.38a9.14,9.14,0,0,1-8.78,6.65h-6.12S507.67,561.52,509.69,564.3Z"/><path class="cls-39" d="M822.28,435.78c-11.92,9.37-32.91,56.41-32.91,56.41l-44.8-26.52s-7.5,4.06-6.67,11.76c0,0,40.89,31.41,51.47,35.38s32.91-37.72,32.91-37.72Z"/><path class="cls-40" d="M875.26,782.93V779.1c0-4.41-4.11-12.42-4.11-15.36s-11.38,2.39-11.38,2.39a14.19,14.19,0,0,1-3.91,8.56,10.91,10.91,0,0,0-2.77,8.24Z"/><path class="cls-40" d="M797.6,782.93l2-.92.92.92H808c.74-2.16,3.29-10.38,1-16.07-2.66-6.61-10.89-4.85-10.89-4.85s-5.59,7.8-8.82,9.19-15.59,6.4-17.06,9.63c-.44,1,.31,1.62.1,2.1Z"/><path class="cls-41" d="M822.82,536.71c-4.26,61.82-15.91,142.85-28.54,228.07,0,0,2.48,4,16.53,1.93l43.27-181a1.24,1.24,0,0,1,2.4.4c.5,13.64,4.88,55.36,2.53,181.15a17.27,17.27,0,0,0,15.26,0s27.89-186,21.47-221.67Z"/><path class="cls-21" d="M896.7,557.87s-11.83,12.43-46.46,7c-19.67-3.12-28.6-12.72-28.6-12.72s-6.32-107.28.64-116.32c5.06-6.57,15-9.39,28-10.07,4.89-.25,10.21-.21,15.86.06a53.17,53.17,0,0,1,11.86,1.9c14.5,4.05,24.67,13.56,26.22,21C906.11,458.07,896.7,557.87,896.7,557.87Z"/><path class="cls-39" d="M867.88,425.87s6.21,3.63,6.12,9.35c0,0,2.09-12.78-2.87-14.72S867.88,425.87,867.88,425.87Z"/><path class="cls-39" d="M899.24,570.3s-9.28,4.08-34.33,3.1c0,0-1.8-80.23-2.71-95.37,0,0,5-35.14,9.95-38.86,4.35-3.25,5.57-9.89,5.81-11.5,14.5,4.05,24.67,13.56,26.22,21C906.11,458.07,899.24,570.3,899.24,570.3Z"/><path class="cls-39" d="M850.24,425.71a59.1,59.1,0,0,0-7.71,22.49c-.27,2.6-.78,29.83-.78,29.83l-7.82,89.4c-11.08.86-14.92-5.27-14.92-5.27s-3.69-117.34,3.27-126.38C827.34,429.21,837.28,426.39,850.24,425.71Z"/><path class="cls-39" d="M833,437.74a22.08,22.08,0,0,1,5.27,2.41,11.07,11.07,0,0,1,1.32,1.07L831,452.44,841.75,478s-.59-18.12,2.12-34.09c.94-4.52,3.76-15.15,10-18.36l.28-5.75S839,422.58,833,437.74Z"/><path class="cls-42" d="M872,400.46c-1.85,21.39-25,22-29.52,13.56-1.46-2.69-2.61-7.46-3.08-12.58-.11-1.17-.18-2.34-.22-3.52-.23-8,1.31-15.88,5.92-17.56C861.12,374.48,873.84,379.06,872,400.46Z"/><path class="cls-43" d="M840.74,384.78s9.16-6.93,23.25-2.6c0,0,2.8,12.21,3.51,17.69,0,0,5.27,2-.08,12.74,0,0,7.78-5.77,9.54-18.58,2.19-15.92-6.34-21.76-17.34-22.24C845.34,371.17,838.21,377.26,840.74,384.78Z"/><path class="cls-42" d="M867.5,399.87s3.5-4.07,6.72-1.55-2.25,10-5.73,9.71S867.5,399.87,867.5,399.87Z"/><path class="cls-43" d="M856.48,380.81s5.83,12.6,12,13.95,6.14-12,6.14-12L858.77,373s-13.85-4.68-19,5a11,11,0,0,0,.15,10.62S842.38,381.43,856.48,380.81Z"/><path class="cls-42" d="M850.24,418.79a21.09,21.09,0,0,1,1.71,14.3s10.83,6.7,18.59-1.72c0,0-3.39-18.85-1.41-23.18,0,0,0-2.44-1-3.54C868.15,404.65,863.77,419.06,850.24,418.79Z"/><path class="cls-39" d="M872.75,422.49c2.58,3.25-13.52,25.45-8.93,57.53l14.37-23.93-7.6-8.09,18.84-6.48s-.83-4.21-6.35-10.75S872.75,422.49,872.75,422.49Z"/><path class="cls-42" d="M744.91,458.7a52.31,52.31,0,0,0,1.78,7.39c.91,2.35,1.9,9-3.8,10.23s-14-8.55-14-8.55a7.63,7.63,0,0,1-.27-7.62c-1.21-1.86.73-5,.73-5l-.82-3.75c4.18-.81,2.8,3,6.05,7.58.79,1.11,3.42,2.49,4.62,3.4h0a27.71,27.71,0,0,0,3.15,2.06h0a35.41,35.41,0,0,1,1.16-5.15C744.16,457.59,744.91,458.7,744.91,458.7Z"/><path class="cls-39" d="M902.75,444.94s-11.61,11.25-13.27,24.68,6.64,46.59,6.64,46.59h-62S828.27,522.57,831,529c0,0,72.25,9.39,81,4.39S914.36,466.39,902.75,444.94Z"/><path class="cls-42" d="M830.33,515.31a52.21,52.21,0,0,1-7-2.95s-1.33-.06-.38,1.43a35.45,35.45,0,0,0,3.45,4h0a28.6,28.6,0,0,1-3.53,1.31h0c-1.44.43-4.11,1.73-5.47,1.71-5.64-.11-7.87-3.47-9.7.38l3.51,1.56s1.41,3.44,3.63,3.58a7.6,7.6,0,0,0,6.29,4.3s12.82-.85,15.18-6.19S832.76,516,830.33,515.31Z"/><path class="cls-43" d="M338.94,392.46c-4.5,11.88,1.09,59.84,1.09,59.84l47.11-1.89s12.14-61.86-12.24-72.05S338.94,392.46,338.94,392.46Z"/><path class="cls-21" d="M319.82,457.88s-5.74,12.86,19.9,22.36S319.82,457.88,319.82,457.88Z"/><path class="cls-44" d="M381.57,442.66s11.71,1.88,16.48,9.88c20.54,34.45,33.71,43.67,33.71,43.67l16.09-40.72,4,5.22s-10,53.7-18.3,52.36-30.37-17.7-30.37-17.7Z"/><path class="cls-21" d="M408.73,465.79c0,.71,0,1.46,0,2.25a15.15,15.15,0,0,1-.61,3.63,8.27,8.27,0,0,1-.71,1.73,5.52,5.52,0,0,1-1.29,1.61,2.94,2.94,0,0,1-.52.39,3.65,3.65,0,0,1-1,.5,6.1,6.1,0,0,1-2.9.27c-2.5-.31-5.19-2.73-7.8-6.18-.45-.59-.89-1.22-1.34-1.86-1.2-1.73-2.36-3.63-3.47-5.59l-1-1.84c-.78-1.47-1.53-2.95-2.25-4.4-.32-.62-.62-1.25-.91-1.87-.93-1.95-1.77-3.81-2.5-5.45-.3-.7-.57-1.36-.84-2-1.23-2.93-2-4.84-2-4.84h.09a.3.3,0,0,0,.12,0c1.34.2,8.74,1.41,13.6,4,5.35,2.88,15,15.17,15,15.17s.05.25.1.67c.09.59.2,1.54.27,2.68C408.71,465.08,408.73,465.43,408.73,465.79Z"/><path class="cls-45" d="M432.22,768.79c-.41,1.43-1.13,3.7-1.79,5.86h17a29.33,29.33,0,0,1-3-6.1c-1.53-5-3.26-11.41-5.06-18.46h-11c2.1,7.45,3.53,13.4,4.29,16.59A8.6,8.6,0,0,1,432.22,768.79Z"/><path class="cls-45" d="M370.92,750.09H359c1.63,9.22,2.74,15.89,2.74,15.89v14.93H375.2c-1.77-8.15-4.25-20.68-4.25-26.73C371,752.83,370.94,751.46,370.92,750.09Z"/><path class="cls-45" d="M440,752.86c-8-30.9-18-77.69-19.26-85.44-.84-5-1.58-20.9-3.56-40.41-.51-22.25-3.07-73.12-15.57-102l-29.42.69c1.19,22.93-21,47.68,6,74.2,3.52,9.9,15.21,43.49,16.9,58.28,2,17.45,5.26,25.19,15.35,44.66,8.74,16.86,14.92,36.5,18.63,50Z"/><path class="cls-21" d="M406.08,483.08c0,.79-.09,1.54-.16,2.27a31.19,31.19,0,0,1-2.45,9.43c-.17.39-.28.59-.28.59l-.07,1.27-.49,9.06-.08,1.78-.33,6.27-.1,1.79-.47,8.84c-20.38,8.91-44,2-44,2a51.49,51.49,0,0,0-1.64-8.14c-.15-.59-.32-1.18-.5-1.75a77.77,77.77,0,0,0-3.38-8.9c-.27-.62-.55-1.21-.82-1.8a68.1,68.1,0,0,0-5.47-9.63c-4.87-6.86-12.13-17.18-16-27.29-.28-.7-.55-1.42-.78-2.11s-.42-1.25-.59-1.86a31.31,31.31,0,0,1-1.4-8.5,22.65,22.65,0,0,1,.16-2.63,15.13,15.13,0,0,1,3.15-7.72,13,13,0,0,1,7.32-4.64,2.83,2.83,0,0,1,.36-.07c.21-.05.39-.07.5-.11,6.5-1.3,14.09.79,19.42-.18,8.11-1.44,17.56.2,21.63,1.08h.09a.3.3,0,0,0,.12,0c1.16.27,1.82.45,1.82.45a77.45,77.45,0,0,1,7.88,6.25l0,0q2.14,1.95,3.95,3.86h0c1.29,1.38,2.43,2.72,3.47,4.06,0,0,0,0,0,0a44.47,44.47,0,0,1,2.84,4,42.44,42.44,0,0,1,3,5.61,41.43,41.43,0,0,1,1.61,4.18c.3,1,.55,1.93.77,2.88v0c.14.62.27,1.21.37,1.8.2,1.05.33,2.09.42,3.07A31.37,31.37,0,0,1,406.08,483.08Z"/><path class="cls-45" d="M340.32,625.62h0c1.89,9.77,4.56,16.31,6,24.53,2.14,12-4,29.31,2.2,48.58,2.91,9.13,8.34,39.26,11.24,55.92H371c0-.16,0-.32,0-.47,0-40.56-5.6-88.91-4.77-107.29.35-7.75,1.67-18.75,3.06-28.75,0,0,5.32-34.18,9.51-36.66C381.27,580,401.64,525,401.64,525l-44,2S332,548.37,338.69,586.31c0,0,0,.39-.06,1.07C337.56,605.24,338.61,616.77,340.32,625.62Z"/><path class="cls-46" d="M430.93,651.33c-6,14.84-23.37-.94-42.34,12.87-11.49,8.37-31.41-13.07-46.88-7.14-10.58,4.05-13.56-7.32-13.56-7.32s1.16-58.5,8.32-89.25c6.18-26.53,20.7-37.1,20.7-37.1a54.53,54.53,0,0,0,12.9,2,183.43,183.43,0,0,0,21.11-.19c2-.13,3.81-.25,5.34-.38,3.17-.25,5.15-.46,5.15-.46C422.83,549.62,430.93,651.33,430.93,651.33Z"/><path class="cls-40" d="M429.89,788s-1.13-15.24,1.84-19.23,11.18,3.7,11.18,3.7l7.31-3.33s-.37,4.77,5.55,8.68,10.72,2.79,11.09,10.18Z"/><path class="cls-40" d="M359.45,772.12s.18-5.06,7.21-4.47,6.52,5.69,6.52,5.69a1.58,1.58,0,0,1,2,0c.93.82.14,7.84,1.92,9.32S378.3,788,378.3,788H357.78s-1.11-5,.93-6.84S355.56,772.68,359.45,772.12Z"/><path class="cls-42" d="M409.4,516.19s4.47-4.37,8.17-5.58a44,44,0,0,1,7.6-1.65s.9.54-2.21,2a12.89,12.89,0,0,0-4.74,3.64s6.59.75,7.73.39,4.63-2.43,6.47-2.15l-4.2,3.89s-1.16,2.82-2.92,3.63-1.26,2.25-4.14,3.47-11.85-1.21-11.85-1.21Z"/><path class="cls-44" d="M467.3,444.84s.21,1.41.2,1.87a14.25,14.25,0,0,1-1.81,5.74,28.78,28.78,0,0,1-3,4.44,28.39,28.39,0,0,1-6.13,4.42.55.55,0,0,0-.26.12l-.54.29c-2.5,1.25-5.66,1.23-6.77.12s-.61-2.77-1.11-3.68,0-3.59,0-3.59c1.63-6.55,9.09-12.41,9.09-12.41s1.5.87,0,3.27a6.51,6.51,0,0,0-1,2.59s0,0,0,.05a3.76,3.76,0,0,0,.07,1.48s8-3.28,9.2-5.68S468.5,441.25,467.3,444.84Z"/><path class="cls-42" d="M352.47,382.1s26.9-5.79,30.08,13-4.22,37.33-18.13,35.31C347.27,428,331.17,390.12,352.47,382.1Z"/><path class="cls-43" d="M361.75,392.63s-6.78,6.9-7.58,16.76c0,0-3.75-5.82-6.55-1.44s5.57,12.16,5.57,12.16-.7,6-4.76,5.67-12.84-18.25-9.61-25.65S350.18,385.91,361.75,392.63Z"/><path class="cls-42" d="M354,416.05c1.39,5.58,8,15.72,16.36,14,0,0-1.69,10.18,1.35,13.47,0,0-.65,8.51-5.22,8.53-5.27,0-15.89-10.94-15.89-10.94a35.89,35.89,0,0,0,.41-24.36A1.77,1.77,0,0,0,354,416.05Z"/><path class="cls-43" d="M374.63,385.36s-4.91,11.39-21.88,13.85-14.63,5.29-14.63,5.29-2.26-18.47,10.31-26.28,43.54-.82,35.43,23.14C383.86,401.36,386.69,389.6,374.63,385.36Z"/><path class="cls-42" d="M326.34,450s9.61,3.29,14.52,11.85,18.06,55.48,18.06,55.48a395.65,395.65,0,0,1,51.38-1.09l.39,5.71s-61.07,18-64,14.47c-1.82-2.21-11.86-40.7-19.25-58.43S323.51,453.47,326.34,450Z"/><path class="cls-21" d="M347.94,474.31c0,1.05-.09,2-.16,2.77-.11,1.55-.23,2.45-.23,2.45a8.24,8.24,0,0,0-.63-1.45,7.69,7.69,0,0,0-1.09-1.52c-2-2.25-5.29-3.46-8.68-4.66l-2-.68a35,35,0,0,1-5.41-2.3,12.94,12.94,0,0,1-1.84-1.2c-.32-.25-.62-.5-.91-.77s-.32-.3-.46-.45a41.8,41.8,0,0,1-4.17-4.53c-.44-.56-.82-1.07-1.12-1.52a13.55,13.55,0,0,1-1.45-2.57c2.75-12.31,14.27-15.67,17.81-16.42a2.83,2.83,0,0,1,.36-.07c.21-.05.39-.07.5-.11l.18,0a29.88,29.88,0,0,1,3.82,5.54c.3.56.59,1.11.86,1.68a42.49,42.49,0,0,1,3,8.5c.15.58.29,1.16.4,1.74.32,1.59.57,3.14.76,4.66.08.62.15,1.23.2,1.84A68.58,68.58,0,0,1,347.94,474.31Z"/><path class="cls-47" d="M143.05,588.22c-.06,7.65-2,19.13-5.74,16.48-4.28-3.06,5.63-19.7,5.63-19.7h0c.82-2.5,1.76-4.92,2.8-7.28-3.65,2.45-14.2,9-16.34,5-2.5-4.7,10.28-6.56,16.76-6a89.06,89.06,0,0,1,5-9.35c-3.92,2.6-13.93,8.7-16,4.77-2.49-4.7,10.27-6.56,16.75-5.95a107.34,107.34,0,0,1,6.85-9.51c-4.35,1.7-15.34,5.54-16.79,1.31-1.72-5,11.18-4.24,17.61-2.34,1.78-2.15,3.61-4.24,5.49-6.25,1-1.09,2.07-2.18,3.13-3.25-4.14.6-16.89,2.09-17.61-2.5-.83-5.27,12.2-1.43,18.2,1.9a112.14,112.14,0,0,1,9.26-8.36c-4.63-.08-16.75-.73-16.92-5.18-.19-5.2,12,.33,17.78,4.5,1-.75,1.94-1.48,2.92-2.18.53-.37,1.14.6.61,1s-1.3.94-1.94,1.42c.73,7.16-.73,22.36-5,19.54-3.79-2.5,2.72-15.69,4.52-19.16a107,107,0,0,0-9.83,8.66c1.51,7.24,1.83,22.12-2.61,20-3.78-1.81.24-14.61,1.83-19.21q-1.64,1.63-3.21,3.3c-1.73,1.83-3.42,3.73-5.07,5.68,2.77,6.84,5.79,21.77,1.12,20.65-4.08-1-2.28-15.54-1.62-20.05a105.48,105.48,0,0,0-7.24,9.8c3.76,6.37,8.92,20.41,4.28,20.25-4-.13-4.68-14.57-4.78-19.48a87.54,87.54,0,0,0-5.35,9.64c3.77,6.31,9,20.53,4.36,20.38-4-.14-4.68-14.58-4.79-19.49A78.28,78.28,0,0,0,143.05,588.22Z"/><polygon class="cls-25" points="1062.16 569.67 1105.6 562.7 1094.28 616.47 1062.16 569.67"/><polygon class="cls-48" points="988.2 340.13 995.31 321.72 1020.37 343.6 988.2 340.13"/><polygon class="cls-22" points="1004.29 276.44 1018.67 257.92 1030.84 278.55 1004.29 276.44"/><polygon class="cls-23" points="273.36 213.48 253.63 218.24 268.28 226.36 273.36 213.48"/><path class="cls-23" d="M1095.34,697.08l-3.66-1.93a7.38,7.38,0,0,0-1.53-.78,48.05,48.05,0,0,1-13.25-.21,36,36,0,0,1-5.19-1.21c-6.22-5.27-8.18-12.14-9.34-18.24-1.23-6.47-1.8-13.14-6.16-19.61a23.78,23.78,0,0,0-7.56-7.17,94.5,94.5,0,0,0-13.91-7.21c-8.57-3.28-16.74-1.31-23.13,1.21s-12.45,5.82-20.4,5.76a9.29,9.29,0,0,1-6-.57,2,2,0,0,1-.4-.18l-.49-.11a20.25,20.25,0,0,1-4.88-7.87c-2.08-5.79-2.33-11.93-7.07-17.46-3.12-3.64-7.38-5.94-11.76-8.28-4.81-2.57-9.54-5.3-14.76-6.61-9.84-2.49-18.62-.16-25.76,3.07.28-.12,4.64,2.52,5.15,2.79s4.74,2.92,5.19,2.72c6.29-2.85,13.69-5,22.17-3.79a35.07,35.07,0,0,1,6,1.4l.16.06a22.29,22.29,0,0,1,6.34,7.91c2.72,5.81,2.59,11.78,6.36,17.51a21.86,21.86,0,0,0,8.16,7c4.37,2.38,9,5.31,13.75,6.75,18.9,5.72,28.11-9.51,45.85-7.2a22.71,22.71,0,0,1,3.1.64l.36.35a26.3,26.3,0,0,1,6,9.31c2.61,6.58,2.62,12.94,4.56,19.47a27.32,27.32,0,0,0,5.29,10.13c3.22,3.78,7.58,6,12.12,8.47,4.91,2.62,9.5,5.11,14.84,6.21a47,47,0,0,0,14.94.51C1099.82,700,1096.1,697.49,1095.34,697.08Z"/><path class="cls-25" d="M232.19,695.37c-.43.82-.87,1.64-1.3,2.47a4.81,4.81,0,0,0-.53,1,32.63,32.63,0,0,1-.14,9,26.55,26.55,0,0,1-.82,3.51c-3.57,4.21-8.21,5.54-12.35,6.32-4.37.83-8.88,1.22-13.26,4.16a16.23,16.23,0,0,0-4.85,5.12,64.07,64.07,0,0,0-4.88,9.41c-2.22,5.8-.89,11.33.82,15.65s3.93,8.43,3.9,13.8a6.36,6.36,0,0,1-.39,4.05,1.07,1.07,0,0,1-.12.27c0,.11-.05.22-.07.33a13.65,13.65,0,0,1-5.33,3.3c-3.92,1.41-8.07,1.58-11.81,4.79-2.46,2.11-4,5-5.6,8-1.74,3.25-3.59,6.46-4.48,10-1.68,6.66-.11,12.6,2.08,17.42a33.42,33.42,0,0,1,1.89-3.48c.21-.39,2-3.21,1.84-3.51a26.73,26.73,0,0,1-2.56-15,23,23,0,0,1,.94-4,.49.49,0,0,0,0-.11,15.16,15.16,0,0,1,5.35-4.29c3.93-1.84,8-1.75,11.85-4.3a14.83,14.83,0,0,0,4.7-5.52c1.61-3,3.59-6.09,4.57-9.3,3.87-12.79-6.43-19-4.88-31a18,18,0,0,1,.44-2.09l.24-.25a17.64,17.64,0,0,1,6.3-4.08c4.45-1.77,8.75-1.77,13.17-3.09a18.51,18.51,0,0,0,6.85-3.57c2.56-2.19,4.09-5.13,5.73-8.2,1.78-3.33,3.46-6.43,4.2-10a31.89,31.89,0,0,0,.35-10.12C234.13,692.33,232.47,694.85,232.19,695.37Z"/><polygon class="cls-24" points="955.95 503.02 987.49 515.92 958.33 546.91 955.95 503.02"/><polygon class="cls-48" points="944.91 750.09 929.11 734.38 954.51 723 944.91 750.09"/><polygon class="cls-25" points="912.75 235.01 888.67 272.06 862.56 235.25 912.75 235.01"/><polygon class="cls-23" points="273.36 213.48 253.63 218.24 268.28 226.36 273.36 213.48"/><polygon class="cls-24" points="268.76 392.38 266.64 375.83 286.87 380.77 268.76 392.38"/><polygon class="cls-23" points="919.41 383.37 921.28 367.6 938.82 376.85 919.41 383.37"/><polygon class="cls-48" points="301.33 759.46 285.13 763.39 287.8 742.74 301.33 759.46"/><polygon class="cls-48" points="252.07 495.21 258.86 482.89 274.45 500.74 252.07 495.21"/><polygon class="cls-25" points="398.94 222.18 420.75 222.1 412.62 242.84 398.94 222.18"/><polygon class="cls-25" points="138.2 691.22 160.01 691.14 151.88 711.88 138.2 691.22"/><polygon class="cls-24" points="822.39 232.67 808.13 230.32 815.48 239.71 822.39 232.67"/><polygon class="cls-24" points="372 279.82 360.66 270.84 362.54 282.62 372 279.82"/><path class="cls-24" d="M164,625.64c.17-.21.35-.42.54-.62l.2-.2C163.7,626.92,163.05,626.83,164,625.64Z"/><path class="cls-48" d="M268.16,296.57c-.35-8.38-3-16.2-8.68-22.44-3.15-3.46-6.27-7.52-10.26-10.11a21.6,21.6,0,0,0-10.45-3.25c-7.46-.49-14.79,1.68-22.17,2.32-3.82.34-8,.44-11.58-1.07a25.79,25.79,0,0,1-1.45-5.4c-1.35-8.35,1-16.84-.72-25.15a20.36,20.36,0,0,0-5.09-9.62c.76.17-5-6-5.51-6a19.38,19.38,0,0,0-7-4.79c-9.8-3.59-19.57,1.61-27.38,7.24.3-.22,7,8.27,7.4,7.95,7.06-5.08,15.42-9.76,24.44-8.05a18.25,18.25,0,0,1,4.55,1.49,27.59,27.59,0,0,1,1.77,9.61c.27,8.61-1.86,17.74,2,25.88,2,4.17,5.86,7.51,9,10.79a15.61,15.61,0,0,0,10.64,5.21c7.57.61,15-1.64,22.52-2.3a31,31,0,0,1,10.69.62,19.81,19.81,0,0,1,5,2.09l.38.23c3.95,6.93,4.63,15,4.44,22.91-.19,7.63-1,15.7,1.53,23.05,1.57,4.53,4.63,7.77,7.84,11.22,3.45,3.71,6.65,7.25,11.4,9.29,9.76,4.18,20.52,2,30.48-.17-.4.09-3.27-3.6-3.66-4s-3.11-4.08-3.74-3.94c-8.8,1.89-18.07,3.86-27,1.4a26.88,26.88,0,0,1-5.73-2.32c-.32-.17-.63-.36-.94-.55a26.73,26.73,0,0,1-2.53-8.21C267.24,312.55,268.48,304.53,268.16,296.57ZM256.62,272a19,19,0,0,1,1.92,1.42C260.82,275.31,260.17,276.57,256.62,272ZM272,330.51c-.29-.44-.56-.9-.81-1.37C274.21,332,273.57,332.87,272,330.51Z"/><polygon class="cls-25" points="247.74 138.31 231.71 136 241.58 118.34 247.74 138.31"/><polygon class="cls-26" points="239.32 593.18 260.05 599.97 245.8 617.1 239.32 593.18"/><polygon class="cls-24" points="524.45 103.69 551.7 91.2 554.05 128.56 524.45 103.69"/><polygon class="cls-22" points="117.78 209.7 111.38 184.51 101.21 203.39 117.78 209.7"/><polygon class="cls-48" points="343.18 110.1 337.47 90.37 363.04 92.55 343.18 110.1"/><polygon class="cls-25" points="621.29 171.07 645.34 140.12 665.68 174.59 621.29 171.07"/><polygon class="cls-25" points="804.21 122.76 825.57 123 815.73 147.79 804.21 122.76"/></svg>